<svg xmlns="http://www.w3.org/2000/svg" viewBox="0 0 716.39 213.9"><defs><style>.cls-1{fill:#73cdac;}.cls-2{fill:#9ce5c9;}.cls-3{fill:#e2a471;}.cls-4{fill:#ffd9aa;}.cls-5{fill:#fbc28b;}.cls-6{fill:#fff0e1;}.cls-7{fill:#cc8e60;}.cls-12,.cls-13,.cls-8{fill:#302d1c;}.cls-9{fill:#f05a28;}.cls-10{fill:#ffb039;}.cls-11{fill:#fff;}.cls-12{font-size:139.99px;font-family:Poppins-SemiBold, Poppins;font-weight:600;}.cls-13{font-size:48px;font-family:Poppins-BoldItalic, Poppins;font-weight:700;font-style:italic;text-decoration:underline;}</style></defs><g id="Layer_2" data-name="Layer 2"><g id="OBJECTS"><polygon class="cls-1" points="109.62 14.81 131.87 33.8 160.85 29.85 169.29 57.86 195.81 70.2 187.78 98.33 203.41 123.05 181.45 142.37 181.23 171.62 152.31 176 136.31 200.49 109.62 188.53 82.92 200.49 66.93 176 38.01 171.62 37.79 142.37 15.82 123.05 31.46 98.33 23.42 70.2 49.94 57.86 58.39 29.85 87.37 33.8 109.62 14.81"/><polygon class="cls-2" points="109.62 41.49 110.66 91.14 117.91 42.01 112.72 91.4 126.07 43.56 114.73 91.92 133.97 46.13 116.66 92.68 141.49 49.67 118.48 93.68 148.51 54.12 120.16 94.9 154.91 59.42 121.67 96.33 160.6 65.47 123 97.92 165.48 72.2 124.11 99.68 169.48 79.48 125 101.56 172.54 87.2 125.64 103.53 174.61 95.25 126.03 105.57 175.65 103.49 126.16 107.65 175.65 111.8 126.03 109.72 174.61 120.04 125.64 111.76 172.54 128.09 125 113.74 169.48 135.82 124.11 115.61 165.48 143.1 123 117.37 160.6 149.82 121.67 118.97 154.91 155.88 120.16 120.39 148.51 161.17 118.48 121.61 141.49 165.63 116.66 122.61 133.97 169.16 114.73 123.38 126.07 171.73 112.72 123.89 117.91 173.28 110.66 124.16 109.62 173.81 108.58 124.16 101.33 173.28 106.52 123.89 93.17 171.73 104.51 123.38 85.26 169.16 102.58 122.61 77.74 165.63 100.75 121.61 70.73 161.17 99.08 120.39 64.33 155.88 97.56 118.97 58.64 149.82 96.24 117.37 53.76 143.1 95.12 115.61 49.75 135.82 94.24 113.74 46.7 128.09 93.6 111.76 44.63 120.04 93.21 109.72 43.59 111.8 93.08 107.65 43.59 103.49 93.21 105.57 44.63 95.25 93.6 103.53 46.7 87.2 94.24 101.56 49.75 79.48 95.12 99.68 53.76 72.2 96.24 97.92 58.64 65.47 97.56 96.33 64.33 59.42 99.08 94.9 70.73 54.12 100.75 93.68 77.74 49.67 102.58 92.68 85.26 46.13 104.51 91.92 93.17 43.56 106.52 91.4 101.33 42.01 108.58 91.14 109.62 41.49"/><path class="cls-3" d="M106.28,96.68a5.31,5.31,0,0,0-.55-.25h0a57.9,57.9,0,0,1,6.33-9.53,12,12,0,0,0-3.74-4.82,5.25,5.25,0,0,0-.48-.35c1.2-1.5,2.41-3,3.62-4.36.08-.1-2.12-4.65-5.2-5.88L103.33,73C102.15,70.06,98,68.29,98,68.29A143.83,143.83,0,0,0,74.92,87.51l-.07.08c.93-2.77-1.94-4.52-1.94-4.52s-.3.28-.86.74c-.86.7-2.32,1.84-4.2,3.09a44.15,44.15,0,0,1-7.76,4.21L48.35,101.84c-.15.27-.3.55-.44.83-4.38,8.8-1.81,21.2-1.81,21.2a51.41,51.41,0,0,1-10.22,13.35c-.66.6-1.05.91-1.05.91l6.07,5.39,17.75,15.77C65,147.63,75.1,146.48,75.1,146.48c9.49-4.82,19-17.71,22.46-22.75.89-1.29,1.38-2.07,1.38-2.07,3.17-11.39,10.84-20.32,10.84-20.32A7.31,7.31,0,0,0,106.28,96.68Z"/><path class="cls-4" d="M70.86,142.86S60.75,144,54.42,155.67L30.59,134.51a48.57,48.57,0,0,0,11.27-14.26s-2.73-13.21,2.26-22L55.86,87.49a44.51,44.51,0,0,0,7.76-4.21C65.5,82,67,80.89,67.81,80.19c.56-.46.86-.73.86-.73S71.55,81.2,70.61,84c0,0,6.75-6.47,23.19-19.29,0,0,4.12,1.76,5.3,4.7L102,67.87c3.08,1.23,5.28,5.78,5.2,5.88-1.21,1.4-2.43,2.87-3.62,4.36,0,0,.18.12.47.35a12.17,12.17,0,0,1,3.75,4.82,57.9,57.9,0,0,0-6.33,9.53h0a4.36,4.36,0,0,1,.55.26,7.24,7.24,0,0,1,3.49,4.65s-7.66,8.94-10.83,20.33c0,0-.49.77-1.38,2.06C89.86,125.15,80.35,138,70.86,142.86Z"/><path class="cls-5" d="M58.77,102s-3.38,4.34-8.16,4.12c0,0,2.29-2.58,3.35-2.62A101.57,101.57,0,0,0,60.71,95s14-17.92,33.09-30.33C93.8,64.68,70.36,83.87,58.77,102Z"/><path class="cls-5" d="M30.59,134.51a48.57,48.57,0,0,0,11.27-14.26s-2.73-13.21,2.26-22c0,0-6.6,13.56,3.52,25.62a182.26,182.26,0,0,1-11,16.06Z"/><path class="cls-6" d="M93.91,66.43a5.71,5.71,0,0,1,3.83,3.4s-2.65,3.8-5,1.74S93.91,66.43,93.91,66.43Z"/><path class="cls-6" d="M102.88,80.24a5.71,5.71,0,0,1,3.84,3.41s-2.66,3.79-5,1.74S102.88,80.24,102.88,80.24Z"/><path class="cls-6" d="M101.05,95.33a4.57,4.57,0,0,1,3.06,2.72s-2.12,3-4,1.38S101.05,95.33,101.05,95.33Z"/><path class="cls-6" d="M101.74,70.05a7,7,0,0,1,4,4.06s-2.84,3.67-5.28,1.22S101.74,70.05,101.74,70.05Z"/><path class="cls-6" d="M68.81,82.86s-3.26,2.79-5.19.42C65.5,82,67,80.89,67.81,80.19A5.74,5.74,0,0,1,68.81,82.86Z"/><path class="cls-5" d="M76,97.17s.49-3.35,23.1-27.79L102,67.87S82,89.24,76,97.17Z"/><path class="cls-5" d="M82.82,105.12c5.8-9.37,20.78-27,20.78-27s.18.12.47.35Z"/><path class="cls-5" d="M89,112c2-5.37,12.46-19.14,12.46-19.14h0a4.36,4.36,0,0,1,.55.26C96.87,99.66,89,112,89,112Z"/><path class="cls-7" d="M113,96.68a5.31,5.31,0,0,1,.55-.25h0a57.16,57.16,0,0,0-6.33-9.53,12.09,12.09,0,0,1,3.75-4.82,4.57,4.57,0,0,1,.47-.35c-1.19-1.5-2.4-3-3.61-4.36-.08-.1,2.11-4.65,5.19-5.88L115.91,73c1.17-2.94,5.29-4.71,5.29-4.71a143.72,143.72,0,0,1,23.11,19.22l.08.08c-.94-2.77,1.94-4.52,1.94-4.52s.3.28.86.74c.86.7,2.32,1.84,4.19,3.09a44.26,44.26,0,0,0,7.77,4.21l11.73,10.73c.16.27.31.55.45.83,4.38,8.8,1.81,21.2,1.81,21.2a51.41,51.41,0,0,0,10.22,13.35c.66.6,1,.91,1,.91l-6.07,5.39-17.76,15.77c-6.33-11.66-16.44-12.81-16.44-12.81-9.49-4.82-19-17.71-22.47-22.75-.88-1.29-1.37-2.07-1.37-2.07a60,60,0,0,0-10.84-20.32A7.3,7.3,0,0,1,113,96.68Z"/><path class="cls-4" d="M148.37,142.86s10.11,1.15,16.44,12.81l23.83-21.16a48.76,48.76,0,0,1-11.27-14.26s2.74-13.21-2.25-22L163.38,87.49a44.15,44.15,0,0,1-7.76-4.21c-1.88-1.25-3.34-2.39-4.2-3.09-.56-.46-.86-.73-.86-.73s-2.87,1.74-1.94,4.51c0,0-6.74-6.47-23.19-19.29,0,0-4.11,1.76-5.29,4.7l-2.92-1.51c-3.08,1.23-5.28,5.78-5.2,5.88,1.21,1.4,2.42,2.87,3.62,4.36,0,0-.18.12-.48.35a12.17,12.17,0,0,0-3.75,4.82,57.54,57.54,0,0,1,6.34,9.53h0a4.36,4.36,0,0,0-.55.26,7.25,7.25,0,0,0-3.5,4.65s7.67,8.94,10.84,20.33c0,0,.49.77,1.38,2.06C129.38,125.15,138.88,138,148.37,142.86Z"/><path class="cls-5" d="M160.47,102s3.38,4.34,8.16,4.12c0,0-2.29-2.58-3.36-2.62A102.05,102.05,0,0,1,158.53,95s-14-17.92-33.1-30.33C125.43,64.68,148.88,83.87,160.47,102Z"/><path class="cls-5" d="M188.64,134.51a48.76,48.76,0,0,1-11.27-14.26s2.74-13.21-2.25-22c0,0,6.59,13.56-3.53,25.62a184.7,184.7,0,0,0,11,16.06Z"/><path class="cls-6" d="M125.33,66.43a5.72,5.72,0,0,0-3.84,3.4s2.66,3.8,5,1.74S125.33,66.43,125.33,66.43Z"/><path class="cls-6" d="M116.35,80.24a5.73,5.73,0,0,0-3.84,3.41s2.66,3.79,5,1.74S116.35,80.24,116.35,80.24Z"/><path class="cls-6" d="M118.19,95.33a4.55,4.55,0,0,0-3.06,2.72s2.12,3,4,1.38S118.19,95.33,118.19,95.33Z"/><path class="cls-6" d="M117.49,70.05a7,7,0,0,0-4,4.06s2.84,3.67,5.28,1.22S117.49,70.05,117.49,70.05Z"/><path class="cls-6" d="M150.42,82.86s3.26,2.79,5.2.42c-1.88-1.25-3.34-2.39-4.2-3.09A5.85,5.85,0,0,0,150.42,82.86Z"/><path class="cls-5" d="M143.24,97.17s-.5-3.35-23.1-27.79l-2.92-1.51S137.23,89.24,143.24,97.17Z"/><path class="cls-5" d="M136.42,105.12c-5.8-9.37-20.78-27-20.78-27s-.18.12-.48.35Z"/><path class="cls-5" d="M130.2,112c-1.95-5.37-12.45-19.14-12.45-19.14h0a4.36,4.36,0,0,0-.55.26C122.37,99.66,130.2,112,130.2,112Z"/><path class="cls-8" d="M187.78,98.33l8-28.13L169.29,57.86l-8.44-28-29,3.95-22.24-19-22.25,19-29-3.95-8.45,28L23.42,70.2l8,28.13L15.83,123.05l22,19.32L38,171.62,66.93,176l16,24.49,26.7-12,26.69,12,16-24.49,28.92-4.38.22-29.25,22-19.32Zm-13.53,40.75-.19,26.32-26,3.94-14.39,22-24-10.76-24,10.76-14.4-22-26-3.94L45,139.08,25.22,121.7,39.29,99.45l-7.23-25.3L55.92,63l7.6-25.2L89.6,41.39l20-17.09,20,17.09,26.08-3.55L163.32,63l23.86,11.11L180,99.45,194,121.7Z"/><path class="cls-9" d="M174.37,148.23a355.35,355.35,0,0,1,44.87,11.4q-8.24,4.55-16,9.46,4.05,8.28,7.56,16.64a327.66,327.66,0,0,0-41.39-10.52Q171.88,161.73,174.37,148.23Z"/><path class="cls-9" d="M49.87,175.21A327.66,327.66,0,0,0,8.48,185.73Q12,177.38,16,169.09q-7.8-4.92-16-9.46a355.64,355.64,0,0,1,44.86-11.4Z"/><path class="cls-10" d="M190.5,175.27a331.68,331.68,0,0,0-161.76,0l-6.69-26.61a359.21,359.21,0,0,1,175.14,0Z"/><path class="cls-11" d="M87.37,151.53a2.89,2.89,0,0,1,.82,1.85,2.92,2.92,0,0,1-.4,1.74,3.29,3.29,0,0,1-1.38,1.24,5.57,5.57,0,0,1-2.21.58c-1.84.14-3.66.29-5.49.45q-.55-6-1.1-12c1.81-.17,3.62-.32,5.44-.45a6,6,0,0,1,2.34.23,3.11,3.11,0,0,1,1.54,1,2.86,2.86,0,0,1,.11,3.37,3.36,3.36,0,0,1-1.54,1.12A2.89,2.89,0,0,1,87.37,151.53Zm-6.7-1.44,2.38-.19a2.39,2.39,0,0,0,1.41-.49,1.51,1.51,0,0,0-.16-2.24,2.29,2.29,0,0,0-1.48-.29l-2.4.19C80.5,148.08,80.58,149.08,80.67,150.09Zm4.44,4.38a1.39,1.39,0,0,0,.44-1.21,1.46,1.46,0,0,0-.64-1.18,2.42,2.42,0,0,0-1.53-.33l-2.56.21.27,3.24,2.59-.2A2.3,2.3,0,0,0,85.11,154.47Z"/><path class="cls-11" d="M98.18,153.88c-1.71.05-3.41.12-5.11.21-.25.78-.49,1.56-.73,2.34-.9,0-1.79.09-2.69.15q1.93-6.18,4-12.34l3.08-.13q2.6,6,5,12l-2.7.07ZM97.41,152q-1-2.49-2.07-5-.86,2.57-1.66,5.13Z"/><path class="cls-11" d="M105.52,155.7a4,4,0,0,1-1.72-1.22,3.16,3.16,0,0,1-.67-1.91l2.77,0a1.65,1.65,0,0,0,.57,1.17,2,2,0,0,0,1.39.42,2.26,2.26,0,0,0,1.42-.41,1.28,1.28,0,0,0,.51-1.06,1.18,1.18,0,0,0-.35-.89,2.43,2.43,0,0,0-.88-.54c-.35-.13-.84-.28-1.46-.44a16.34,16.34,0,0,1-2.06-.66,3.55,3.55,0,0,1-1.37-1,2.81,2.81,0,0,1-.61-1.82,3.09,3.09,0,0,1,.55-1.88,3.72,3.72,0,0,1,1.63-1.25,6.29,6.29,0,0,1,2.42-.44,5.5,5.5,0,0,1,3.32.9,3.24,3.24,0,0,1,1.38,2.55h-2.88a1.36,1.36,0,0,0-.58-1,2.3,2.3,0,0,0-1.42-.4,1.92,1.92,0,0,0-1.23.37,1.27,1.27,0,0,0-.45,1.06,1,1,0,0,0,.36.81,2.69,2.69,0,0,0,.86.51c.34.13.83.28,1.45.45a15.53,15.53,0,0,1,2.07.69,3.58,3.58,0,0,1,1.37,1.05,2.71,2.71,0,0,1,.56,1.82,3.23,3.23,0,0,1-.55,1.8,3.78,3.78,0,0,1-1.56,1.32,5.72,5.72,0,0,1-2.43.5A6.59,6.59,0,0,1,105.52,155.7Z"/><path class="cls-11" d="M125.33,144.25q-2.4,3.83-4.71,7.71c-.05,1.4-.09,2.8-.14,4.2l-2.56-.07c0-1.4.07-2.8.11-4.21q-2.1-4-4.3-8l3,.05q1.36,2.79,2.69,5.59c1-1.82,2-3.63,3-5.43C123.37,144.16,124.35,144.2,125.33,144.25Z"/><path class="cls-11" d="M129.51,144.46q-.33,6-.68,12.07l-2.56-.13.6-12.08Z"/><path class="cls-11" d="M137.92,157.17c-.81-1.65-1.62-3.29-2.46-4.93l-1.22-.08-.33,4.7-2.56-.18q.39-6,.77-12.07l4.95.35a6.17,6.17,0,0,1,2.57.71,3.7,3.7,0,0,1,1.49,1.47,3.32,3.32,0,0,1,.36,1.92,3.44,3.44,0,0,1-.94,2.08,3.84,3.84,0,0,1-2.32,1.13c.9,1.72,1.78,3.43,2.64,5.16Zm-3.55-6.83,2.18.16a2.29,2.29,0,0,0,1.62-.35,1.7,1.7,0,0,0,.63-1.27,1.61,1.61,0,0,0-.42-1.33,2.34,2.34,0,0,0-1.56-.59l-2.2-.16Z"/><text class="cls-12" transform="translate(210.76 119.06)">BASYIR</text><text class="cls-13" transform="translate(220.41 184.81)">Spreading Kindness</text></g></g></svg>